<?xml version="1.0"?>
<svg xmlns="http://www.w3.org/2000/svg" xmlns:xlink="http://www.w3.org/1999/xlink" xmlns:svgjs="http://svgjs.com/svgjs" version="1.1" width="512" height="512" x="0" y="0" viewBox="0 0 458.353 458.353" style="enable-background:new 0 0 512 512" xml:space="preserve" class=""><g><path xmlns="http://www.w3.org/2000/svg" id="path-1_104_" d="m315.118 200.529h143.235v28.647h-143.235z" transform="translate(11 7)" fill="#3f67c5" data-original="#000000" style="" class=""/><path xmlns="http://www.w3.org/2000/svg" d="m0 315.118h458.353v28.647h-458.353z" fill="#3f67c5" data-original="#000000" style="" class=""/><path xmlns="http://www.w3.org/2000/svg" d="m0 401.059h343.765v28.647h-343.765z" fill="#3f67c5" data-original="#000000" style="" class=""/><path xmlns="http://www.w3.org/2000/svg" id="path-1_103_" d="m315.118 85.941h143.235v28.647h-143.235z" transform="translate(11 3)" fill="#3f67c5" data-original="#000000" style="" class=""/><path xmlns="http://www.w3.org/2000/svg" d="m14.324 257.824h257.824c7.917 0 14.324-6.406 14.324-14.324v-200.529c0-7.917-6.406-14.324-14.324-14.324h-257.824c-7.918 0-14.324 6.406-14.324 14.324v200.529c0 7.917 6.406 14.324 14.324 14.324zm14.323-200.53h229.176v171.882l-85.941-85.941-85.941 85.941h-57.294z" fill="#3f67c5" data-original="#000000" style="" class=""/><path xmlns="http://www.w3.org/2000/svg" d="m106.198 94.332c11.187 11.187 11.187 29.326 0 40.513s-29.326 11.187-40.513 0-11.187-29.326 0-40.513c11.187-11.188 29.326-11.188 40.513 0" fill="#3f67c5" data-original="#000000" style="" class=""/></g></svg>
